<svg width="8" height="11" viewBox="0 0 8 11" fill="none" xmlns="http://www.w3.org/2000/svg">
<path d="M0.403675 11H4.52512C6.8568 11 8.00027 9.81179 8.00027 8.22585C8.00027 6.68466 6.90652 5.77983 5.82271 5.72514V5.62571C6.81703 5.39205 7.60254 4.69602 7.60254 3.4581C7.60254 1.94176 6.50879 0.818182 4.3014 0.818182H0.403675V11ZM2.24814 9.45881V6.47585H4.28152C5.42001 6.47585 6.12598 7.17188 6.12598 8.08168C6.12598 8.89205 5.56916 9.45881 4.2318 9.45881H2.24814ZM2.24814 5.14844V2.33949H4.11248C5.19629 2.33949 5.75808 2.91122 5.75808 3.69673C5.75808 4.59162 5.03223 5.14844 4.07271 5.14844H2.24814Z" fill="#FF8B37"/>
</svg>
